PathFileType	4	(X/Y/Z)	C:\Users\dbl\Desktop\20210112(1)\20210112\bx_y_10_1801.trc
DataRate	CameraRate	NumFrames	NumMarkers	Units	OrigDataRate	OrigDataStartFrame	OrigNumFrames
50.00	50.00	       8	43	mm	50.00	176	       468
Frame#	Time	Top.Head			R.Acromium			L.Acromium			Sternum			R.ASIS			L.ASIS			V.Sacral			R.Thigh.Upper			R.Thigh.Front			R.Thigh.Rear			R.Knee.Lat			R.Knee.Med			R.Shank.Upper			R.Shank.Front			R.Shank.Rear			R.Ankle.Lat			R.Midfoot.Lat			R.Toe.Lat			R.Toe.Tip			R.Toe.Med			R.Ankle.Med			R.Midfoot.Sup			R.Heel			L.Thigh.Upper			L.Thigh.Front			L.Thigh.Rear			L.Knee.Lat			L.Knee.Med			L.Shank.Upper			L.Shank.Front			L.Shank.Rear			L.Ankle.Lat			L.Midfoot.Lat			L.Toe.Lat			L.Toe.Tip			L.Toe.Med			L.Ankle.Med			L.Midfoot.Sup			L.Heel			origin1 front left			origin2 front right			origin 3 back right			origin 4 back leftt			
		X1	Y1	Z1	X2	Y2	Z2	X3	Y3	Z3	X4	Y4	Z4	X5	Y5	Z5	X6	Y6	Z6	X7	Y7	Z7	X8	Y8	Z8	X9	Y9	Z9	X10	Y10	Z10	X11	Y11	Z11	X12	Y12	Z12	X13	Y13	Z13	X14	Y14	Z14	X15	Y15	Z15	X16	Y16	Z16	X17	Y17	Z17	X18	Y18	Z18	X19	Y19	Z19	X20	Y20	Z20	X21	Y21	Z21	X22	Y22	Z22	X23	Y23	Z23	X24	Y24	Z24	X25	Y25	Z25	X26	Y26	Z26	X27	Y27	Z27	X28	Y28	Z28	X29	Y29	Z29	X30	Y30	Z30	X31	Y31	Z31	X32	Y32	Z32	X33	Y33	Z33	X34	Y34	Z34	X35	Y35	Z35	X36	Y36	Z36	X37	Y37	Z37	X38	Y38	Z38	X39	Y39	Z39	X40	Y40	Z40	X41	Y41	Z41	X42	Y42	Z42	X43	Y43	Z43	

176	3.500	-670.08179	90.84413	1820.13171	-683.91156	-85.12013	1510.04016	-677.72467	271.81857	1511.85486	-643.38531	83.55945	1387.68335	-729.26074	-10.82154	1052.83972	-701.67480	209.71246	1062.90100	-921.35559	113.26199	1036.92810	-755.96820	-70.74323	882.94373	-665.77228	-19.96803	828.76831	-741.62671	-53.88409	715.06378	-701.18781	-38.83539	619.19519	-662.45490	65.81451	583.10858	-701.98682	-36.48465	566.40515	-648.93060	-0.38031	517.38434	-753.83673	-39.05724	488.11499	-768.59430	-8.42111	206.89557	-666.39276	-72.12509	159.20573	-624.02881	-81.69442	156.52753	-561.63068	-40.60596	163.03612	-604.50140	15.36273	170.49928	-713.41510	72.15961	215.40628	-675.73383	51.17729	160.99620	-793.60889	54.68167	176.05147	-718.50470	287.93839	884.91034	-652.34601	216.18726	844.68945	-722.18750	284.19269	752.53137	-709.70593	257.78360	636.17725	-656.97980	154.04854	585.29919	-697.31268	254.24776	577.55292	-643.41571	213.46565	533.14325	-742.55743	261.68497	502.19080	-770.73291	225.13664	204.28519	-666.92255	299.79623	159.32323	-629.45605	307.31146	161.29393	-561.43243	260.35629	164.96414	-596.22461	223.71599	173.82108	-709.67944	154.46805	215.50702	-676.14771	175.29628	158.19321	-795.84589	173.74075	185.58163	-528.27985	304.22708	146.46942	-517.58447	-72.28313	143.43994	-876.01721	-78.62038	141.49738	-882.55829	296.11240	144.59236	
177	3.520	-676.00977	90.72282	1824.87195	-689.75647	-85.16998	1514.75903	-683.26990	271.80270	1516.39465	-646.43213	83.90170	1392.63904	-726.70892	-11.13342	1055.30127	-698.10541	209.42574	1065.87830	-917.88654	113.48999	1038.11499	-754.27954	-70.76694	884.28577	-665.08789	-19.52656	828.73230	-742.71649	-52.87833	716.26465	-703.90454	-37.84728	619.80206	-665.67993	66.97766	583.44989	-705.09052	-35.44213	566.99670	-651.75555	0.61146	518.18292	-756.42877	-38.11255	488.28723	-768.94299	-8.43635	206.70695	-666.42224	-72.14757	159.16809	-624.04199	-81.69865	156.54276	-561.78125	-40.51495	163.08546	-604.65997	15.27859	170.59319	-713.86115	71.97227	215.56929	-675.78491	51.16076	161.08434	-793.77185	54.46711	175.86331	-716.20374	287.75446	885.95526	-651.01422	215.92375	844.58417	-722.67883	283.65466	753.63287	-712.81976	257.25366	637.03473	-660.97754	153.30458	585.71106	-701.02209	253.61938	578.08472	-647.00824	212.75443	533.89850	-745.71771	261.19724	502.37204	-770.95734	225.15747	204.16190	-666.91315	299.79672	159.30800	-629.42841	307.28726	161.29445	-561.47345	260.28162	165.05461	-596.22943	223.72726	173.82344	-710.00012	154.61961	215.71840	-676.20715	175.32915	158.16281	-796.09027	173.90900	185.54047	-528.26917	304.20493	146.46895	-517.61475	-72.31113	143.46994	-876.03070	-78.61920	141.47855	-882.55676	296.11023	144.59198	
178	3.540	-681.89130	90.56245	1829.20801	-695.42700	-85.18178	1519.13574	-688.73706	271.83881	1520.53503	-649.37183	84.32935	1397.36462	-723.97345	-11.59095	1057.50061	-694.53253	209.15306	1068.66089	-914.36627	113.67325	1039.17017	-752.66565	-70.80579	885.44965	-664.45001	-19.18237	828.66034	-743.78680	-51.91947	717.37292	-706.63220	-36.92400	620.33350	-668.94104	68.08694	583.75146	-708.19073	-34.44587	567.59204	-654.57300	1.59080	518.97852	-759.05670	-37.18874	488.47968	-769.29950	-8.42945	206.53821	-666.45404	-72.16403	159.13284	-624.06116	-81.71203	156.56508	-561.99261	-40.39339	163.13771	-604.84778	15.14949	170.71565	-714.30670	71.73273	215.76541	-675.87012	51.12491	161.24475	-793.97607	54.21915	175.64165	-714.00189	287.56158	886.87177	-649.72607	215.74107	844.33740	-723.25500	283.18539	754.63824	-716.02576	256.77112	637.83868	-665.04907	152.62175	586.08649	-704.84387	253.01697	578.57867	-650.65027	212.06320	534.63281	-748.93848	260.72714	502.52832	-771.18231	225.17221	204.02489	-666.90424	299.80762	159.29482	-629.40173	307.26260	161.29726	-561.54736	260.21704	165.14104	-596.24139	223.75398	173.84055	-710.29553	154.77821	215.92999	-676.26581	175.37721	158.11957	-796.33026	174.08099	185.49364	-528.25812	304.18744	146.46652	-517.65216	-72.33132	143.46849	-876.02557	-78.61533	141.46185	-882.56543	296.10800	144.59268	
179	3.560	-687.72540	90.38571	1833.14624	-700.89520	-85.13785	1523.19751	-694.10492	271.94363	1524.29358	-652.11499	84.82426	1401.82996	-720.86798	-12.21830	1059.39258	-691.02112	208.95274	1071.21582	-910.95514	113.81975	1040.20435	-751.14392	-70.85093	886.46338	-663.80731	-18.94846	828.54517	-744.84277	-51.05750	718.40961	-709.38580	-36.08278	620.80457	-672.20575	69.09065	584.00452	-711.28436	-33.48441	568.17194	-657.35602	2.50661	519.78418	-761.71002	-36.30755	488.71014	-769.64465	-8.42834	206.41824	-666.48138	-72.18481	159.09821	-624.08954	-81.73185	156.58882	-562.25891	-40.26283	163.19287	-605.03278	14.98256	170.86288	-714.70483	71.48054	215.97498	-675.98035	51.06454	161.47221	-794.21088	53.95837	175.40050	-711.89264	287.34778	887.65643	-648.47333	215.60475	843.96466	-723.88055	282.75327	755.53210	-719.29065	256.31845	638.58881	-669.19373	151.96748	586.39844	-708.74017	252.41704	579.02838	-654.32178	211.37274	535.34705	-752.20239	260.26984	502.65457	-771.38568	225.19014	203.88760	-666.89508	299.82495	159.28754	-629.37585	307.23581	161.30115	-561.63593	260.16101	165.21407	-596.25922	223.78644	173.87378	-710.53308	154.93321	216.15851	-676.32404	175.43129	158.08235	-796.52820	174.25427	185.41536	-528.24884	304.17868	146.46643	-517.68958	-72.34507	143.43794	-876.00214	-78.60947	141.44481	-882.58099	296.10645	144.59378	
180	3.580	-693.48950	90.22150	1836.69128	-706.16266	-85.01864	1526.95569	-699.36444	272.11801	1527.67993	-654.61230	85.35432	1405.98535	-717.17993	-13.04486	1060.95337	-687.64417	208.88551	1073.50403	-907.74445	113.91871	1041.26868	-749.71637	-70.89035	887.35486	-663.10596	-18.83184	828.36884	-745.89423	-50.32272	719.40717	-712.16925	-35.32735	621.23193	-675.43414	69.96275	584.20428	-714.36438	-32.54711	568.72424	-660.09259	3.32444	520.60297	-764.36127	-35.48145	488.98129	-769.98071	-8.46651	206.35481	-666.50031	-72.21854	159.06555	-624.12701	-81.75269	156.60829	-562.56158	-40.15055	163.25284	-605.18365	14.79124	171.03818	-715.01892	71.25441	216.18913	-676.09332	50.97535	161.74471	-794.45667	53.71481	175.15877	-709.88208	287.09955	888.29688	-647.26984	215.46367	843.47754	-724.51392	282.31689	756.29242	-722.55774	255.88994	639.28912	-673.37561	151.32416	586.63092	-712.64929	251.80341	579.42212	-657.99524	210.67838	536.02930	-755.47827	259.82303	502.75055	-771.55365	225.21954	203.76085	-666.88745	299.84219	159.28595	-629.35211	307.20782	161.30411	-561.72058	260.11169	165.26845	-596.28180	223.81725	173.92203	-710.70013	155.08398	216.41220	-676.38116	175.48306	158.07381	-796.65808	174.42253	185.28575	-528.24084	304.17828	146.47223	-517.71893	-72.35678	143.38504	-875.96912	-78.60431	141.42563	-882.59741	296.10870	144.59686	
181	3.600	-699.14850	90.09883	1839.84985	-711.25104	-84.81154	1530.40613	-704.51788	272.34497	1530.69910	-656.88062	85.88023	1409.78259	-712.52393	-14.23189	1062.21594	-684.47369	209.01180	1075.48438	-904.72974	113.94089	1042.34668	-748.35394	-70.91953	888.15076	-662.31110	-18.81359	828.10339	-746.94153	-49.71921	720.39532	-714.97211	-34.64418	621.62408	-678.59454	70.71252	584.35126	-717.42230	-31.63561	569.24500	-662.79639	4.04284	521.41663	-766.98254	-34.71732	489.27603	-770.32288	-8.56918	206.33760	-666.51300	-72.26924	159.03616	-624.16998	-81.76902	156.62027	-562.87555	-40.07907	163.32239	-605.28748	14.58962	171.25375	-715.23218	71.07131	216.41878	-676.18671	50.85182	162.03793	-794.69250	53.51793	174.93701	-707.98749	286.81003	888.77490	-646.14050	215.27350	842.88428	-725.11340	281.83801	756.89722	-725.75519	255.48792	639.93713	-677.51978	150.68677	586.78247	-716.49689	251.17390	579.74707	-661.63574	209.99263	536.65930	-758.72260	259.39178	502.82428	-771.68677	225.26480	203.65202	-666.88361	299.85275	159.28667	-629.33466	307.18347	161.30496	-561.79004	260.06915	165.30646	-596.31042	223.84435	173.98114	-710.80145	155.23637	216.68584	-676.43713	175.53307	158.11246	-796.71979	174.57401	185.10741	-528.23291	304.18253	146.48367	-517.73645	-72.37130	143.31863	-875.94019	-78.60272	141.40723	-882.60840	296.11780	144.60382	
182	3.620	-704.66003	90.04021	1842.63367	-716.18164	-84.52073	1533.53772	-709.57397	272.59692	1533.35718	-658.99451	86.36664	1413.19604	-706.15100	-16.21907	1063.29370	-681.56354	209.38431	1077.12000	-901.84302	113.84926	1043.37683	-746.99255	-70.95059	888.87531	-661.41864	-18.84340	827.71942	-747.96252	-49.22865	721.38379	-717.76910	-34.00611	621.97522	-681.67548	71.37878	584.45276	-720.45184	-30.76435	569.73071	-665.50159	4.69106	522.18695	-769.56024	-34.02045	489.56265	-770.68219	-8.74299	206.34807	-666.52722	-72.33576	159.00793	-624.21381	-81.77744	156.62520	-563.17688	-40.05901	163.40680	-605.35669	14.38832	171.52457	-715.35535	70.91481	216.68677	-676.25360	50.68866	162.33635	-794.90350	53.38186	174.75156	-706.23004	286.48657	889.07367	-645.10547	215.01837	842.19122	-725.65039	281.29199	757.33154	-728.81378	255.11377	640.51715	-681.52344	150.05769	586.86334	-720.20972	250.54007	579.99304	-665.19733	209.34090	537.21954	-761.88635	258.98688	502.88718	-771.79858	225.32443	203.56633	-666.88428	299.85220	159.28642	-629.32941	307.16959	161.30437	-561.84125	260.03656	165.33755	-596.34729	223.87042	174.04459	-710.85156	155.39590	216.96231	-676.49213	175.59045	158.20576	-796.73859	174.69388	184.90759	-528.22540	304.18637	146.49512	-517.74652	-72.39160	143.24869	-875.92761	-78.60515	141.39708	-882.61078	296.13336	144.61409	
183	3.640	-709.97827	90.05780	1845.05908	-720.95306	-84.16910	1536.34338	-714.54016	272.84787	1535.66589	-661.04578	86.79373	1416.23145	-697.05127	-19.67081	1064.36560	-678.92639	210.03336	1078.38977	-899.00781	113.61316	1044.28735	-745.54321	-71.00946	889.54425	-660.44824	-18.85441	827.20294	-748.90930	-48.82207	722.35364	-720.52051	-33.38678	622.27264	-684.68646	72.01215	584.52411	-723.45007	-29.95152	570.17065	-668.24225	5.31161	522.87177	-772.09491	-33.39640	489.80676	-771.05475	-8.97442	206.36755	-666.55273	-72.41325	158.97530	-624.25488	-81.77716	156.62617	-563.45001	-40.08825	163.50748	-605.42218	14.19213	171.85954	-715.42731	70.74341	217.00803	-676.31079	50.48478	162.63498	-795.08344	53.29396	174.60695	-704.62610	286.15295	889.18695	-644.16711	214.72520	841.40424	-726.12427	280.67694	757.59363	-731.68719	254.76195	641.00482	-685.27795	149.44615	586.88885	-723.73016	249.92276	580.15747	-668.62268	208.75339	537.70398	-764.92444	258.61728	502.94434	-771.90869	225.39073	203.50815	-666.88739	299.84009	159.28473	-629.34058	307.17133	161.30426	-561.87708	260.01987	165.37361	-596.39252	223.89990	174.10623	-710.86951	155.56300	217.21930	-676.54443	175.66463	158.34712	-796.74854	174.77068	184.72408	-528.22174	304.18463	146.49785	-517.76044	-72.41839	143.18498	-875.93671	-78.60875	141.40245	-882.60553	296.15033	144.62363	
